<svg 
 xmlns="http://www.w3.org/2000/svg"
 xmlns:xlink="http://www.w3.org/1999/xlink"
 width="11px" height="11px">
<path fill-rule="evenodd"  fill="rgb(249, 184, 30)"
 d="M10.751,8.703 L9.53,7.0 C8.715,6.662 8.154,6.672 7.804,7.23 L6.949,7.881 C6.895,7.851 6.839,7.820 6.780,7.787 C6.240,7.487 5.500,7.76 4.722,6.294 C3.942,5.512 3.531,4.769 3.231,4.227 C3.199,4.169 3.169,4.115 3.139,4.62 L3.713,3.487 L3.995,3.203 C4.346,2.851 4.355,2.290 4.18,1.951 L2.320,0.248 C1.982,0.89 1.422,0.79 1.71,0.271 L0.592,0.754 L0.606,0.767 C0.445,0.973 0.311,1.209 0.211,1.465 C0.119,1.708 0.62,1.940 0.36,2.172 C0.188,4.36 0.661,5.740 2.966,8.52 C6.153,11.248 8.722,11.6 8.832,10.995 C9.74,10.966 9.305,10.908 9.540,10.816 C9.793,10.717 10.29,10.583 10.233,10.423 L10.244,10.432 L10.728,9.956 C11.79,9.604 11.88,9.42 10.751,8.703 Z"/>
</svg>