<svg 
 xmlns="http://www.w3.org/2000/svg"
 xmlns:xlink="http://www.w3.org/1999/xlink"
 width="75px" height="75px">
<path fill-rule="evenodd"  fill="rgb(255, 222, 143)"
 d="M74.691,74.568 C74.453,74.842 74.109,74.999 73.747,74.999 L61.248,74.999 C60.558,74.999 59.998,74.439 59.998,73.749 C59.998,73.59 60.558,72.500 61.248,72.500 L72.273,72.500 C72.77,71.381 71.746,69.645 71.270,67.499 L57.196,67.499 C57.328,69.8 57.413,70.528 57.449,72.57 C57.478,72.629 57.498,73.197 57.498,73.749 C57.498,74.439 56.938,74.999 56.248,74.999 C55.558,74.999 54.998,74.439 54.998,73.749 C54.998,62.303 48.19,44.999 37.499,44.999 C26.980,44.999 20.0,62.303 20.0,73.749 C20.0,74.439 19.440,74.999 18.750,74.999 C18.61,74.999 17.501,74.439 17.501,73.749 C17.501,73.197 17.521,72.629 17.549,72.57 C17.586,70.528 17.670,69.8 17.803,67.499 L3.729,67.499 C3.253,69.645 2.922,71.381 2.725,72.500 L13.751,72.500 C14.441,72.500 15.1,73.59 15.1,73.749 C15.1,74.439 14.441,74.999 13.751,74.999 L1.252,74.999 C0.889,74.999 0.545,74.842 0.308,74.568 C0.71,74.294 0.36,73.931 0.14,73.572 C0.33,73.440 1.975,60.138 7.441,47.18 C11.973,36.139 17.658,28.431 24.224,24.99 C24.314,24.15 24.409,23.947 24.519,23.892 C28.537,21.316 32.885,19.999 37.499,19.999 C42.115,19.999 46.463,21.316 50.482,23.894 C50.590,23.947 50.682,24.15 50.771,24.97 C57.340,28.427 63.24,36.137 67.558,47.18 C73.24,60.138 74.966,73.439 74.985,73.572 C75.36,73.931 74.928,74.294 74.691,74.568 ZM37.499,42.499 C43.310,42.499 48.119,46.697 51.564,52.467 C48.816,44.424 44.288,37.22 37.499,31.979 C30.711,37.22 26.183,44.424 23.435,52.467 C26.880,46.697 31.689,42.499 37.499,42.499 ZM4.310,64.999 L18.48,64.999 C19.34,57.6 21.344,49.453 24.814,43.147 C27.639,38.11 31.189,33.773 35.346,30.521 C32.394,28.672 29.59,27.245 25.310,26.352 C13.316,34.493 7.71,53.631 4.310,64.999 ZM37.499,22.499 C34.167,22.499 31.137,23.276 28.370,24.606 C31.637,25.629 34.691,27.92 37.499,28.972 C40.308,27.92 43.362,25.629 46.629,24.606 C43.862,23.276 40.832,22.499 37.499,22.499 ZM49.689,26.352 C45.940,27.245 42.605,28.672 39.653,30.521 C43.810,33.773 47.360,38.11 50.185,43.147 C53.655,49.453 55.965,57.6 56.951,64.999 L70.689,64.999 C67.927,53.631 61.683,34.493 49.689,26.352 ZM49.904,9.228 C49.710,9.694 49.254,9.999 48.749,9.999 L41.249,9.999 C40.559,9.999 39.999,9.439 39.999,8.749 C39.999,8.59 40.559,7.499 41.249,7.499 L45.732,7.499 L44.115,5.883 C43.626,5.394 43.626,4.604 44.115,4.116 L45.732,2.499 L37.499,2.499 L37.499,16.249 C37.499,16.939 36.939,17.500 36.250,17.500 C35.560,17.500 35.0,16.939 35.0,16.249 L35.0,1.249 C35.0,0.559 35.560,0.0 36.250,0.0 L48.749,0.0 C49.254,0.0 49.710,0.304 49.904,0.771 C50.97,1.238 49.990,1.776 49.632,2.133 L46.766,4.999 L49.632,7.865 C49.990,8.223 50.98,8.761 49.904,9.228 Z"/>
</svg>