<svg 
 xmlns="http://www.w3.org/2000/svg"
 xmlns:xlink="http://www.w3.org/1999/xlink"
 width="77px" height="77px">
<path fill-rule="evenodd"  fill="rgb(255, 191, 29)"
 d="M74.999,76.999 L64.999,76.999 L64.999,74.999 L74.999,74.999 L74.999,64.999 L76.999,64.999 L76.999,74.999 L76.999,76.999 L74.999,76.999 ZM74.999,1.999 L64.999,1.999 L64.999,0.0 L74.999,0.0 L76.999,0.0 L76.999,1.999 L76.999,11.999 L74.999,11.999 L74.999,1.999 ZM65.725,16.789 C66.77,17.135 66.77,17.693 65.725,18.38 L65.89,18.663 C64.913,18.835 64.683,18.922 64.453,18.922 C64.222,18.922 63.992,18.835 63.817,18.663 C63.465,18.318 63.465,17.759 63.817,17.414 L64.453,16.789 C64.804,16.444 65.373,16.444 65.725,16.789 ZM62.126,21.572 C61.951,21.744 61.720,21.831 61.490,21.831 C61.260,21.831 61.29,21.744 60.854,21.572 C60.502,21.227 60.502,20.668 60.854,20.323 L61.490,19.698 C61.842,19.353 62.410,19.353 62.762,19.698 C63.114,20.44 63.114,20.602 62.762,20.947 L62.126,21.572 ZM65.989,29.782 C65.989,30.163 65.741,30.499 65.373,30.620 L60.402,32.247 L58.744,37.128 C58.622,37.490 58.279,37.733 57.891,37.733 C57.503,37.733 57.159,37.490 57.38,37.128 L55.380,32.247 L50.409,30.620 C50.41,30.499 49.793,30.163 49.793,29.782 C49.793,29.401 50.41,29.64 50.409,28.944 L55.380,27.316 L57.38,22.435 C57.159,22.74 57.503,21.831 57.891,21.831 C58.279,21.831 58.622,22.74 58.744,22.435 L60.402,27.316 L65.373,28.944 C65.741,29.64 65.989,29.401 65.989,29.782 ZM59.406,28.853 C59.137,28.765 58.926,28.558 58.838,28.294 L57.891,25.508 L56.945,28.294 C56.856,28.558 56.645,28.765 56.376,28.853 L53.538,29.782 L56.376,30.710 C56.645,30.799 56.856,31.5 56.945,31.269 L57.891,34.56 L58.838,31.269 C58.926,31.5 59.137,30.799 59.406,30.710 L62.244,29.782 L59.406,28.853 ZM53.61,14.998 C52.935,15.368 52.585,15.602 52.208,15.602 C52.114,15.602 52.18,15.588 51.923,15.556 C51.453,15.402 51.198,14.901 51.355,14.438 L51.640,13.601 C51.797,13.138 52.303,12.886 52.777,13.42 C53.248,13.196 53.503,13.696 53.346,14.159 L53.61,14.998 ZM51.849,18.568 L51.243,20.353 C51.118,20.723 50.767,20.957 50.390,20.957 C50.296,20.957 50.200,20.942 50.106,20.911 C49.634,20.757 49.380,20.257 49.537,19.794 L50.144,18.8 C50.300,17.546 50.807,17.294 51.281,17.450 C51.752,17.605 52.7,18.105 51.849,18.568 ZM50.32,23.923 L49.747,24.760 C49.622,25.131 49.271,25.365 48.894,25.365 C48.800,25.365 48.704,25.351 48.609,25.320 C48.138,25.165 47.883,24.665 48.41,24.202 L48.325,23.364 C48.483,22.901 48.988,22.648 49.463,22.805 C49.934,22.959 50.189,23.460 50.32,23.923 ZM47.94,30.668 L23.701,30.665 C22.213,30.665 21.2,31.855 21.2,33.316 L21.2,52.751 C21.2,54.212 22.213,55.401 23.701,55.401 L41.696,55.401 C42.193,55.401 42.596,55.797 42.596,56.285 C42.596,56.773 42.193,57.168 41.696,57.168 L23.701,57.168 C21.221,57.168 19.203,55.187 19.203,52.751 L19.203,33.316 C19.203,30.880 21.221,28.898 23.701,28.898 L47.94,28.901 C47.592,28.901 47.994,29.297 47.994,29.785 C47.994,30.272 47.591,30.668 47.94,30.668 ZM39.896,25.365 C39.399,25.365 38.997,24.969 38.997,24.481 L38.997,23.598 C38.997,23.110 39.399,22.714 39.896,22.714 C40.394,22.714 40.796,23.110 40.796,23.598 L40.796,24.481 C40.796,24.969 40.394,25.365 39.896,25.365 ZM39.896,20.947 C39.399,20.947 38.997,20.552 38.997,20.64 L38.997,18.297 C38.997,17.809 39.399,17.414 39.896,17.414 C40.394,17.414 40.796,17.809 40.796,18.297 L40.796,20.64 C40.796,20.552 40.394,20.947 39.896,20.947 ZM39.896,15.647 C39.399,15.647 38.997,15.251 38.997,14.763 L38.997,13.880 C38.997,13.392 39.399,12.997 39.896,12.997 C40.394,12.997 40.796,13.392 40.796,13.880 L40.796,14.763 C40.796,15.251 40.394,15.647 39.896,15.647 ZM31.183,25.320 C31.90,25.350 30.993,25.365 30.899,25.365 C30.522,25.365 30.171,25.131 30.46,24.760 L29.761,23.923 C29.604,23.460 29.859,22.959 30.330,22.806 C30.800,22.651 31.311,22.901 31.468,23.364 L31.752,24.202 C31.910,24.665 31.655,25.165 31.183,25.320 ZM29.687,20.911 C29.593,20.942 29.496,20.957 29.403,20.957 C29.26,20.957 28.675,20.723 28.550,20.353 L27.943,18.568 C27.786,18.105 28.41,17.605 28.512,17.450 C28.986,17.296 29.494,17.546 29.649,18.8 L30.256,19.794 C30.413,20.257 30.159,20.757 29.687,20.911 ZM27.870,15.556 C27.775,15.587 27.679,15.602 27.584,15.602 C27.207,15.602 26.857,15.368 26.731,14.998 L26.447,14.159 C26.290,13.696 26.544,13.196 27.16,13.42 C27.485,12.888 27.997,13.138 28.153,13.601 L28.438,14.438 C28.595,14.901 28.340,15.402 27.870,15.556 ZM20.102,25.365 C19.872,25.365 19.642,25.278 19.466,25.106 L18.830,24.481 C18.478,24.136 18.478,23.578 18.830,23.232 C19.182,22.887 19.750,22.887 20.102,23.232 L20.738,23.857 C21.90,24.202 21.90,24.760 20.738,25.106 C20.563,25.278 20.333,25.365 20.102,25.365 ZM17.95,22.413 C16.865,22.413 16.635,22.327 16.459,22.154 L15.274,20.990 C14.923,20.645 14.923,20.86 15.274,19.741 C15.625,19.396 16.195,19.396 16.547,19.741 L17.731,20.905 C18.83,21.250 18.83,21.809 17.731,22.154 C17.556,22.327 17.326,22.413 17.95,22.413 ZM13.541,18.922 C13.310,18.922 13.80,18.835 12.904,18.663 L12.268,18.38 C11.917,17.693 11.917,17.135 12.268,16.789 C12.620,16.444 13.189,16.444 13.541,16.789 L14.177,17.414 C14.528,17.759 14.528,18.318 14.177,18.663 C14.1,18.835 13.771,18.922 13.541,18.922 ZM0.0,76.999 L0.0,74.999 L0.0,64.999 L1.999,64.999 L1.999,74.999 L11.999,74.999 L11.999,76.999 L1.999,76.999 L0.0,76.999 ZM1.999,11.999 L0.0,11.999 L0.0,1.999 L0.0,0.0 L1.999,0.0 L11.999,0.0 L11.999,1.999 L1.999,1.999 L1.999,11.999 ZM32.698,58.935 C33.196,58.935 33.598,59.331 33.598,59.819 L33.598,65.119 C33.598,65.607 33.196,66.3 32.698,66.3 C32.201,66.3 31.799,65.607 31.799,65.119 L31.799,59.819 C31.799,59.331 32.201,58.935 32.698,58.935 ZM25.501,51.868 C25.3,51.868 24.601,51.472 24.601,50.984 L24.601,35.82 C24.601,34.595 25.3,34.199 25.501,34.199 L52.493,34.199 C52.990,34.199 53.392,34.595 53.392,35.82 L53.392,50.984 C53.392,51.472 52.990,51.868 52.493,51.868 L25.501,51.868 ZM51.593,35.966 L26.400,35.966 L26.400,50.101 L51.593,50.101 L51.593,35.966 ZM30.899,37.733 C31.397,37.733 31.799,38.129 31.799,38.616 L31.799,47.451 C31.799,47.938 31.397,48.334 30.899,48.334 C30.402,48.334 29.999,47.938 29.999,47.451 L29.999,38.616 C29.999,38.129 30.402,37.733 30.899,37.733 ZM36.297,37.733 C36.795,37.733 37.197,38.129 37.197,38.616 L37.197,47.451 C37.197,47.938 36.795,48.334 36.297,48.334 C35.800,48.334 35.398,47.938 35.398,47.451 L35.398,38.616 C35.398,38.129 35.800,37.733 36.297,37.733 ZM41.696,37.733 C42.193,37.733 42.596,38.129 42.596,38.616 L42.596,47.451 C42.596,47.938 42.193,48.334 41.696,48.334 C41.198,48.334 40.796,47.938 40.796,47.451 L40.796,38.616 C40.796,38.129 41.198,37.733 41.696,37.733 ZM47.94,37.733 C47.592,37.733 47.994,38.129 47.994,38.616 L47.994,47.451 C47.994,47.938 47.592,48.334 47.94,48.334 C46.597,48.334 46.195,47.938 46.195,47.451 L46.195,38.616 C46.195,38.129 46.597,37.733 47.94,37.733 ZM45.295,55.401 L54.292,55.401 C55.780,55.401 56.991,54.212 56.991,52.751 L56.991,40.383 C56.991,39.895 57.394,39.500 57.891,39.500 C58.388,39.500 58.791,39.895 58.791,40.383 L58.791,52.751 C58.791,55.187 56.773,57.168 54.292,57.168 L46.195,57.168 L46.195,65.119 C46.195,65.607 45.792,66.3 45.295,66.3 C44.797,66.3 44.395,65.607 44.395,65.119 L44.395,56.285 C44.395,55.797 44.797,55.401 45.295,55.401 Z"/>
</svg>