<svg 
 xmlns="http://www.w3.org/2000/svg"
 xmlns:xlink="http://www.w3.org/1999/xlink"
 width="77px" height="77px">
<path fill-rule="evenodd"  fill="rgb(250, 185, 30)"
 d="M74.999,76.999 L64.999,76.999 L64.999,74.999 L74.999,74.999 L74.999,64.999 L76.999,64.999 L76.999,74.999 L76.999,76.999 L74.999,76.999 ZM74.999,1.999 L64.999,1.999 L64.999,0.0 L74.999,0.0 L76.999,0.0 L76.999,1.999 L76.999,11.999 L74.999,11.999 L74.999,1.999 ZM52.196,24.855 C51.729,24.855 51.351,24.477 51.351,24.10 L51.351,16.839 L27.346,16.839 L27.346,28.741 C27.346,29.208 26.967,29.586 26.501,29.586 C26.34,29.586 25.655,29.208 25.655,28.741 L25.655,15.994 C25.655,15.528 26.34,15.149 26.501,15.149 L52.196,15.149 C52.663,15.149 53.41,15.528 53.41,15.994 L53.41,24.10 C53.41,24.477 52.663,24.855 52.196,24.855 ZM42.350,41.314 C42.350,41.811 41.945,42.216 41.447,42.216 C40.950,42.216 40.545,41.811 40.545,41.314 C40.545,40.817 40.950,40.412 41.447,40.412 C41.945,40.412 42.350,40.817 42.350,41.314 ZM30.301,40.170 C34.485,40.170 37.890,43.573 37.890,47.755 C37.890,51.937 34.485,55.339 30.301,55.339 C26.117,55.339 22.712,51.937 22.712,47.755 C22.712,43.573 26.116,40.170 30.301,40.170 ZM30.301,53.650 C33.553,53.650 36.199,51.5 36.199,47.755 C36.199,44.504 33.553,41.860 30.301,41.860 C27.49,41.860 24.403,44.504 24.403,47.755 C24.403,51.5 27.49,53.650 30.301,53.650 ZM37.756,34.68 L37.756,34.756 C37.756,35.703 38.527,36.473 39.475,36.473 L42.297,36.473 C44.473,36.473 46.244,38.244 46.244,40.419 L46.244,55.904 C46.244,58.80 44.473,59.849 42.296,59.849 L18.305,59.849 C16.128,59.849 14.357,58.80 14.357,55.904 L14.357,48.923 C14.357,48.456 14.736,48.78 15.203,48.78 C15.669,48.78 16.48,48.457 16.48,48.923 L16.48,55.904 C16.48,57.148 17.61,58.160 18.305,58.160 L42.297,58.160 C43.541,58.160 44.554,57.148 44.554,55.904 L44.554,40.419 C44.554,39.175 43.541,38.163 42.297,38.163 L39.475,38.163 C37.596,38.163 36.66,36.634 36.66,34.755 L36.66,34.68 C36.66,33.812 35.857,33.604 35.601,33.604 L25.1,33.604 C24.745,33.604 24.536,33.812 24.536,34.68 L24.536,34.755 C24.536,36.634 23.7,38.163 21.127,38.163 L18.305,38.163 C17.61,38.163 16.48,39.175 16.48,40.419 L16.48,43.791 C16.48,44.258 15.669,44.636 15.203,44.636 C14.736,44.636 14.357,44.258 14.357,43.791 L14.357,40.419 C14.357,38.244 16.128,36.473 18.305,36.473 L21.127,36.473 C22.74,36.473 22.845,35.703 22.845,34.756 L22.845,34.68 C22.845,32.880 23.812,31.914 25.1,31.914 L35.601,31.914 C36.790,31.914 37.756,32.880 37.756,34.68 ZM0.0,76.999 L0.0,74.999 L0.0,64.999 L1.999,64.999 L1.999,74.999 L11.999,74.999 L11.999,76.999 L1.999,76.999 L0.0,76.999 ZM1.999,11.999 L0.0,11.999 L0.0,1.999 L0.0,0.0 L1.999,0.0 L11.999,0.0 L11.999,1.999 L1.999,1.999 L1.999,11.999 ZM48.558,45.191 L54.206,47.376 L58.904,35.245 L43.275,29.200 L41.397,34.397 C41.238,34.836 40.754,35.64 40.315,34.905 C39.876,34.747 39.648,34.262 39.807,33.823 L41.979,27.813 C42.56,27.599 42.216,27.425 42.423,27.331 C42.630,27.237 42.866,27.230 43.79,27.312 L60.302,33.975 C60.511,34.56 60.680,34.216 60.770,34.421 C60.861,34.626 60.866,34.859 60.785,35.67 L55.477,48.774 C55.310,49.206 54.796,49.416 54.384,49.257 L47.948,46.767 C47.513,46.598 47.296,46.109 47.465,45.674 C47.633,45.239 48.123,45.23 48.558,45.191 ZM30.73,29.811 C29.606,29.811 29.227,29.433 29.227,28.966 L29.227,19.580 C29.227,19.113 29.606,18.735 30.73,18.735 L48.541,18.735 C49.8,18.735 49.386,19.113 49.386,19.580 L49.386,22.959 C49.386,23.426 49.8,23.804 48.541,23.804 C48.74,23.804 47.696,23.426 47.696,22.959 L47.696,20.424 L30.918,20.424 L30.918,28.966 C30.918,29.433 30.539,29.811 30.73,29.811 ZM48.802,53.219 L54.942,55.595 L63.607,33.220 L41.221,24.560 L39.168,29.859 C39.0,30.294 38.511,30.511 38.75,30.342 C37.640,30.174 37.423,29.685 37.592,29.249 L39.949,23.163 C40.118,22.727 40.607,22.511 41.43,22.680 L65.6,31.950 C65.441,32.118 65.657,32.607 65.489,33.42 L56.214,56.992 C56.84,57.327 55.764,57.532 55.425,57.532 C55.324,57.532 55.221,57.514 55.120,57.475 L48.192,54.795 C47.756,54.626 47.540,54.137 47.709,53.702 C47.877,53.267 48.367,53.51 48.802,53.219 Z"/>
</svg>