<svg 
 xmlns="http://www.w3.org/2000/svg"
 xmlns:xlink="http://www.w3.org/1999/xlink"
 width="20px" height="56px">
<path fill-rule="evenodd"  stroke="rgb(255, 255, 255)" stroke-width="2px" stroke-linecap="butt" stroke-linejoin="miter" fill="none"
 d="M7.999,0.999 L10.999,0.999 C14.865,0.999 17.999,4.133 17.999,7.999 L17.999,18.999 C17.999,22.865 14.865,25.999 10.999,25.999 L7.999,25.999 C4.133,25.999 0.999,22.865 0.999,18.999 L0.999,7.999 C0.999,4.133 4.133,0.999 7.999,0.999 Z"/>
<path fill-rule="evenodd"  stroke="rgb(255, 255, 255)" stroke-width="2px" stroke-linecap="butt" stroke-linejoin="miter" fill="none"
 d="M9.499,5.999 C10.880,5.999 11.999,7.118 11.999,8.499 L11.999,11.499 C11.999,12.880 10.880,13.999 9.499,13.999 C8.119,13.999 6.999,12.880 6.999,11.499 L6.999,8.499 C6.999,7.118 8.119,5.999 9.499,5.999 Z"/>
<path fill-rule="evenodd"
 d="M11.862,50.526 L9.323,53.816 C9.276,53.877 9.221,53.920 9.163,53.949 C9.4,54.42 8.807,54.2 8.669,53.824 L6.130,50.534 C6.33,50.408 5.999,50.247 6.6,50.87 C6.5,50.74 5.999,50.63 5.999,50.50 C5.999,49.788 6.179,49.575 6.401,49.575 L11.221,49.575 C11.285,49.575 11.344,49.597 11.397,49.628 C11.560,49.530 11.753,49.558 11.880,49.725 C12.46,49.940 12.38,50.299 11.862,50.526 Z"/>
</svg>