<svg 
 xmlns="http://www.w3.org/2000/svg"
 xmlns:xlink="http://www.w3.org/1999/xlink"
 width="77px" height="77px">
<path fill-rule="evenodd"  fill="rgb(255, 191, 29)"
 d="M75.0,76.999 L64.999,76.999 L64.999,74.999 L75.0,74.999 L75.0,64.999 L76.999,64.999 L76.999,74.999 L76.999,76.999 L75.0,76.999 ZM75.0,1.999 L64.999,1.999 L64.999,0.0 L75.0,0.0 L76.999,0.0 L76.999,1.999 L76.999,11.999 L75.0,11.999 L75.0,1.999 ZM63.679,36.702 C63.23,37.164 62.129,37.647 61.176,38.105 L59.689,54.346 C59.627,55.16 58.768,55.309 58.308,54.813 L47.486,43.116 L50.936,57.855 C51.76,58.451 50.484,58.986 49.902,58.788 L44.93,56.817 L39.926,61.102 C39.495,61.546 38.717,61.329 38.577,60.729 L35.113,45.929 C35.79,45.936 30.551,61.434 30.551,61.434 C30.373,62.47 29.542,62.204 29.152,61.696 C29.152,61.696 19.39,48.525 19.23,48.498 C17.234,48.683 15.502,48.823 13.845,48.912 C13.830,48.913 13.815,48.913 13.801,48.913 C13.380,48.913 13.28,48.585 13.5,48.161 C12.981,47.723 13.319,47.348 13.758,47.324 C19.982,46.988 27.378,45.937 35.147,44.287 C42.535,42.718 49.749,40.724 56.11,38.522 C57.40,38.160 58.520,37.578 59.900,36.946 C60.14,36.846 60.155,36.778 60.309,36.755 C61.268,36.302 62.150,35.831 62.759,35.403 C63.119,35.150 63.617,35.235 63.871,35.594 C64.125,35.953 64.39,36.449 63.679,36.702 ZM20.868,48.294 L29.458,59.479 L33.279,46.304 C29.22,47.151 24.825,47.827 20.868,48.294 ZM36.673,45.594 L39.799,58.949 L43.299,55.349 C43.514,55.128 43.837,55.51 44.129,55.149 L49.56,56.821 L45.897,43.326 C42.861,44.157 39.764,44.918 36.673,45.594 ZM56.542,40.21 C54.130,40.870 51.611,41.678 49.29,42.437 L58.264,52.418 L59.505,38.860 C58.354,39.352 57.264,39.767 56.542,40.21 ZM42.651,53.313 C42.493,53.511 42.260,53.614 42.25,53.614 C41.852,53.614 41.677,53.558 41.530,53.442 C41.185,53.169 41.127,52.669 41.401,52.325 L43.739,49.386 C44.13,49.42 44.515,48.985 44.860,49.258 C45.205,49.530 45.263,50.31 44.989,50.375 L42.651,53.313 ZM41.375,50.63 C41.217,50.261 40.985,50.364 40.749,50.364 C40.576,50.364 40.401,50.307 40.254,50.191 C39.909,49.919 39.851,49.419 40.125,49.75 L42.463,46.136 C42.737,45.792 43.239,45.734 43.584,46.7 C43.929,46.280 43.987,46.780 43.713,47.124 L41.375,50.63 ZM63.871,35.594 C63.617,35.235 64.125,35.953 63.871,35.594 ZM29.686,37.245 C29.686,37.713 29.304,38.94 28.834,38.94 C28.365,38.94 27.983,37.713 27.983,37.245 C27.983,36.777 28.365,36.397 28.834,36.397 C29.304,36.397 29.686,36.777 29.686,37.245 ZM19.196,43.293 C19.196,43.761 18.814,44.142 18.345,44.142 C17.875,44.142 17.493,43.761 17.493,43.293 C17.493,42.825 17.875,42.445 18.345,42.445 C18.814,42.445 19.196,42.825 19.196,43.293 ZM61.700,31.38 C61.347,31.66 60.993,31.79 60.640,31.79 C60.124,31.79 59.608,31.52 59.91,31.3 L58.238,35.227 C58.151,35.660 57.710,35.943 57.278,35.844 C56.862,35.749 56.590,35.330 56.674,34.913 L57.505,30.799 C56.848,30.695 56.189,30.570 55.526,30.440 C53.157,29.975 50.710,29.420 48.224,28.792 L46.385,39.72 C46.309,39.499 45.887,39.791 45.460,39.715 C45.32,39.639 44.738,39.220 44.814,38.793 L46.675,28.392 C46.428,28.327 46.181,28.261 45.933,28.195 L34.368,40.671 C33.905,41.171 33.40,40.869 32.987,40.194 C32.987,40.194 31.826,24.828 31.759,23.736 C31.557,23.663 31.356,23.590 31.154,23.516 L24.892,37.419 C24.641,37.977 23.845,38.45 23.503,37.536 L20.81,32.459 L14.162,33.350 C13.550,33.442 13.61,32.801 13.315,32.238 L19.413,18.698 C17.849,17.975 16.346,17.241 14.919,16.501 C14.529,16.298 14.376,15.818 14.580,15.428 C14.783,15.39 15.265,14.887 15.656,15.90 C26.771,20.855 42.542,26.267 55.835,28.880 C57.879,29.282 59.722,29.602 61.572,29.453 C62.11,29.418 62.396,29.744 62.431,30.181 C62.467,30.619 62.140,31.3 61.700,31.38 ZM20.865,19.359 L15.369,31.560 L20.342,30.811 C20.648,30.765 20.952,30.899 21.123,31.154 L24.26,35.461 L29.656,22.962 C26.606,21.816 23.650,20.606 20.865,19.359 ZM33.334,24.296 L34.435,38.256 L44.201,27.720 C40.575,26.704 36.914,25.550 33.334,24.296 ZM20.464,28.460 C20.75,28.460 19.735,28.177 19.676,27.781 C19.612,27.347 19.913,26.943 20.349,26.879 L24.71,26.331 C24.507,26.268 24.913,26.567 24.977,27.2 C25.41,27.437 24.740,27.840 24.304,27.905 L20.582,28.452 C20.542,28.458 20.503,28.460 20.464,28.460 ZM21.766,25.221 C21.377,25.221 21.36,24.936 20.978,24.541 C20.913,24.107 21.214,23.703 21.650,23.639 L25.373,23.91 C25.809,23.27 26.214,23.327 26.279,23.762 C26.343,24.196 26.42,24.601 25.606,24.665 L21.883,25.212 C21.844,25.218 21.805,25.221 21.766,25.221 ZM56.388,23.403 C54.828,23.403 53.559,22.138 53.559,20.584 C53.559,19.29 54.828,17.764 56.388,17.764 C57.948,17.764 59.217,19.29 59.217,20.584 C59.217,22.138 57.948,23.403 56.388,23.403 ZM56.388,19.354 C55.708,19.354 55.154,19.906 55.154,20.584 C55.154,21.262 55.708,21.813 56.388,21.813 C57.68,21.813 57.621,21.262 57.621,20.584 C57.621,19.906 57.68,19.354 56.388,19.354 ZM46.39,20.203 C45.569,20.203 45.187,19.823 45.187,19.355 C45.187,18.887 45.569,18.506 46.39,18.506 C46.508,18.506 46.890,18.887 46.890,19.355 C46.890,19.823 46.508,20.203 46.39,20.203 ZM0.0,76.999 L0.0,74.999 L0.0,64.999 L1.999,64.999 L1.999,74.999 L11.999,74.999 L11.999,76.999 L1.999,76.999 L0.0,76.999 ZM1.999,11.999 L0.0,11.999 L0.0,1.999 L0.0,0.0 L1.999,0.0 L11.999,0.0 L11.999,1.999 L1.999,1.999 L1.999,11.999 Z"/>
</svg>