<svg 
 xmlns="http://www.w3.org/2000/svg"
 xmlns:xlink="http://www.w3.org/1999/xlink"
 width="77px" height="77px">
<path fill-rule="evenodd"  fill="rgb(250, 185, 30)"
 d="M74.999,76.999 L64.999,76.999 L64.999,74.999 L74.999,74.999 L74.999,64.999 L76.999,64.999 L76.999,74.999 L76.999,76.999 L74.999,76.999 ZM74.999,1.999 L64.999,1.999 L64.999,0.0 L74.999,0.0 L76.999,0.0 L76.999,1.999 L76.999,11.999 L74.999,11.999 L74.999,1.999 ZM63.229,52.930 L51.330,60.339 C51.236,60.401 48.408,62.239 42.32,62.239 C36.566,62.239 28.688,57.895 28.354,57.710 C28.351,57.710 26.696,56.938 23.484,56.938 C22.996,56.938 22.601,56.542 22.601,56.54 C22.601,55.566 22.996,55.171 23.484,55.171 C27.183,55.171 29.99,56.107 29.178,56.147 C29.290,56.208 37.25,60.472 42.32,60.472 C47.806,60.472 50.353,58.866 50.379,58.850 L62.320,51.415 C62.754,51.164 63.46,50.783 63.168,50.327 C63.290,49.871 63.228,49.395 62.992,48.986 C62.505,48.141 61.421,47.851 60.579,48.339 L50.367,53.314 C48.423,54.287 46.582,54.287 42.915,54.287 C39.350,54.287 34.157,53.428 33.937,53.391 C33.457,53.311 33.132,52.856 33.211,52.374 C33.292,51.894 33.746,51.570 34.228,51.649 C34.280,51.657 39.497,52.520 42.915,52.520 C46.410,52.520 48.6,52.520 49.585,51.729 L59.751,46.779 C60.512,46.336 61.464,46.210 62.377,46.456 C63.288,46.700 64.50,47.285 64.522,48.102 C64.994,48.920 65.119,49.872 64.874,50.785 C64.631,51.696 64.46,52.458 63.229,52.930 ZM55.582,14.881 C57.347,15.508 58.718,16.881 59.343,18.648 C59.505,19.107 59.264,19.613 58.805,19.776 C58.708,19.810 58.608,19.827 58.510,19.827 C58.147,19.827 57.806,19.601 57.678,19.237 C57.237,17.994 56.234,16.988 54.991,16.547 C54.531,16.384 54.292,15.879 54.454,15.419 C54.618,14.959 55.122,14.720 55.582,14.881 ZM47.754,40.926 C47.623,40.997 47.477,41.34 47.331,41.34 C47.185,41.34 47.41,40.997 46.908,40.926 C36.857,35.441 31.433,26.417 31.433,20.712 C31.433,15.352 35.792,10.993 41.149,10.993 C42.501,10.993 43.810,11.266 45.39,11.804 C45.486,12.0 45.690,12.521 45.495,12.968 C45.299,13.415 44.779,13.618 44.332,13.423 C43.326,12.983 42.255,12.760 41.149,12.760 C36.766,12.760 33.200,16.327 33.200,20.712 C33.200,25.899 38.475,34.142 47.331,39.139 C56.187,34.142 61.463,25.899 61.463,20.712 C61.463,16.327 57.897,12.760 53.514,12.760 C50.435,12.760 47.605,14.564 46.304,17.357 C46.98,17.799 45.573,17.992 45.130,17.785 C44.689,17.579 44.497,17.53 44.704,16.610 C46.292,13.198 49.751,10.993 53.514,10.993 C58.871,10.993 63.229,15.352 63.229,20.712 C63.229,26.417 57.806,35.441 47.754,40.926 ZM40.265,48.102 L45.565,48.102 C47.637,48.102 48.721,49.128 48.839,49.245 C49.183,49.589 49.183,50.148 48.839,50.494 C48.666,50.666 48.441,50.753 48.214,50.753 C47.988,50.753 47.762,50.666 47.590,50.494 C47.572,50.478 46.906,49.869 45.565,49.869 L40.265,49.869 C38.646,49.869 36.816,48.496 34.878,47.42 C33.332,45.883 31.580,44.568 30.550,44.568 L23.484,44.568 C22.996,44.568 22.601,44.172 22.601,43.684 C22.601,43.197 22.996,42.801 23.484,42.801 L30.550,42.801 C32.169,42.801 33.999,44.174 35.938,45.628 C37.483,46.787 39.235,48.102 40.265,48.102 ZM16.419,58.263 C16.419,58.994 15.824,59.588 15.94,59.588 C14.364,59.588 13.769,58.994 13.769,58.263 C13.769,57.532 14.364,56.938 15.94,56.938 C15.824,56.938 16.419,57.532 16.419,58.263 ZM18.185,64.6 L12.886,64.6 C12.397,64.6 12.3,63.610 12.3,63.122 C12.3,62.635 12.397,62.239 12.886,62.239 L18.185,62.239 C18.672,62.239 19.68,61.842 19.68,61.355 L19.68,41.917 C19.68,41.430 18.672,41.34 18.185,41.34 L12.886,41.34 C12.397,41.34 12.3,40.638 12.3,40.150 C12.3,39.662 12.397,39.267 12.886,39.267 L18.185,39.267 C19.646,39.267 20.835,40.456 20.835,41.917 L20.835,61.355 C20.835,62.816 19.646,64.6 18.185,64.6 ZM0.0,76.999 L0.0,74.999 L0.0,64.999 L1.999,64.999 L1.999,74.999 L11.999,74.999 L11.999,76.999 L1.999,76.999 L0.0,76.999 ZM1.999,11.999 L0.0,11.999 L0.0,1.999 L0.0,0.0 L1.999,0.0 L11.999,0.0 L11.999,1.999 L1.999,1.999 L1.999,11.999 Z"/>
</svg>