<svg 
 xmlns="http://www.w3.org/2000/svg"
 xmlns:xlink="http://www.w3.org/1999/xlink"
 width="77px" height="77px">
<path fill-rule="evenodd"  fill="rgb(255, 191, 29)"
 d="M74.999,76.999 L64.999,76.999 L64.999,74.999 L74.999,74.999 L74.999,64.999 L76.999,64.999 L76.999,74.999 L76.999,76.999 L74.999,76.999 ZM74.999,1.999 L64.999,1.999 L64.999,0.0 L74.999,0.0 L76.999,0.0 L76.999,1.999 L76.999,11.999 L74.999,11.999 L74.999,1.999 ZM61.999,63.999 L59.999,63.999 L59.999,61.999 L53.999,61.999 L56.454,42.756 L56.454,39.914 C47.181,33.552 42.562,27.466 40.315,23.457 C39.482,21.971 38.904,20.654 38.500,19.551 C38.97,20.654 37.518,21.971 36.685,23.457 C34.439,27.467 29.819,33.553 20.545,39.915 L20.545,42.755 L22.999,61.999 L18.0,61.999 L18.0,63.999 L15.999,63.999 L15.999,61.999 L13.0,61.999 L15.708,42.756 L15.708,38.527 L15.708,34.592 C15.708,29.249 17.623,24.63 21.98,19.991 C24.306,16.233 28.669,13.612 33.472,12.537 C33.456,12.404 33.445,12.260 33.445,12.103 C33.445,10.391 34.834,8.999 36.541,8.999 C37.372,8.999 37.974,9.286 38.498,9.680 C39.7,9.299 39.629,8.999 40.459,8.999 C42.168,8.999 43.559,10.391 43.559,12.103 C43.559,12.258 43.547,12.401 43.528,12.536 C48.332,13.611 52.696,16.231 55.904,19.989 C59.381,24.62 61.296,29.248 61.296,34.592 L61.296,42.804 L63.999,61.999 L61.999,61.999 L61.999,63.999 ZM15.62,60.30 L21.206,60.30 L18.806,43.715 L17.448,43.715 L15.62,60.30 ZM16.999,41.999 L18.999,41.999 L18.999,39.999 L16.999,39.999 L16.999,41.999 ZM34.212,14.240 C24.516,16.234 17.543,24.697 17.543,34.592 L17.543,38.527 L19.341,38.527 C28.355,32.376 32.835,26.535 35.8,22.705 C36.332,20.370 36.981,18.483 37.296,17.270 C36.420,16.521 34.964,15.221 34.212,14.240 ZM40.459,10.819 C39.975,10.819 39.647,11.51 39.136,11.538 L38.507,12.138 L37.872,11.545 C37.287,11.0 37.12,10.819 36.541,10.819 C35.834,10.819 35.280,11.383 35.280,12.103 C35.280,12.451 35.364,12.619 35.480,12.852 L35.489,12.870 C35.762,13.420 37.192,14.770 38.412,15.821 L38.500,15.827 L38.591,15.821 C39.921,14.680 41.269,13.375 41.505,12.883 L41.520,12.850 C41.630,12.622 41.724,12.424 41.724,12.103 C41.724,11.383 41.168,10.819 40.459,10.819 ZM59.461,34.592 C59.461,24.696 52.488,16.234 42.792,14.240 C42.44,15.223 40.585,16.523 39.705,17.271 C40.21,18.484 40.669,20.371 41.993,22.705 C44.165,26.535 48.646,32.376 57.659,38.527 L59.461,38.527 L59.461,34.592 ZM59.999,39.999 L58.0,39.999 L58.0,41.999 L59.999,41.999 L59.999,39.999 ZM59.552,43.715 L58.193,43.715 L55.808,60.30 L61.951,60.30 L59.552,43.715 ZM0.0,76.999 L0.0,74.999 L0.0,64.999 L1.999,64.999 L1.999,74.999 L11.999,74.999 L11.999,76.999 L1.999,76.999 L0.0,76.999 ZM1.999,11.999 L0.0,11.999 L0.0,1.999 L0.0,0.0 L1.999,0.0 L11.999,0.0 L11.999,1.999 L1.999,1.999 L1.999,11.999 ZM48.999,48.999 L41.999,48.999 L42.36,49.650 C42.36,51.269 40.505,52.598 38.999,52.999 L38.999,62.999 L41.999,62.999 L42.26,65.14 L37.999,64.999 L33.974,65.14 L33.999,62.999 L36.999,62.999 L36.999,52.999 C35.494,52.598 33.952,51.417 33.999,48.999 L26.999,48.999 L26.999,46.999 L48.999,46.999 L48.999,48.999 ZM39.999,48.999 L35.999,48.999 L35.999,49.999 C35.999,50.929 37.62,50.999 37.999,50.999 C38.937,50.999 39.999,50.929 39.999,49.999 L39.999,48.999 Z"/>
</svg>