<svg 
 xmlns="http://www.w3.org/2000/svg"
 xmlns:xlink="http://www.w3.org/1999/xlink"
 width="29px" height="29px">
<defs>
<filter id="Filter_0">
    <feFlood flood-color="rgb(53, 33, 53)" flood-opacity="1" result="floodOut" />
    <feComposite operator="atop" in="floodOut" in2="SourceGraphic" result="compOut" />
    <feBlend mode="normal" in="compOut" in2="SourceGraphic" />
</filter>

</defs>
<g filter="url(#Filter_0)">
<path fill-rule="evenodd"  opacity="0.302" fill="rgb(8, 4, 37)"
 d="M14.496,28.999 C6.486,28.999 0.6,22.507 0.6,14.498 C0.6,6.489 6.486,0.2 14.496,0.2 C22.506,0.2 28.999,6.489 28.999,14.498 C28.999,22.507 22.506,28.999 14.496,28.999 ZM14.499,3.273 C8.298,3.273 3.270,8.300 3.270,14.501 C3.270,20.702 8.298,25.729 14.499,25.729 C20.701,25.729 25.729,20.702 25.729,14.501 C25.729,8.300 20.701,3.273 14.499,3.273 ZM20.582,19.939 L8.304,19.939 C8.304,19.939 7.982,19.779 7.553,19.189 C7.124,18.599 6.749,16.884 6.749,16.884 L12.861,6.537 C12.861,6.537 13.397,5.948 14.446,6.1 C15.495,6.55 16.239,6.537 16.239,6.537 L22.297,16.991 C22.297,16.991 22.351,16.991 22.83,17.902 C21.815,18.814 20.582,19.939 20.582,19.939 ZM14.630,10.665 L10.962,16.750 L18.298,16.750 L14.630,10.665 Z"/>
</g>
</svg>