<svg xmlns="http://www.w3.org/2000/svg" xmlns:xlink="http://www.w3.org/1999/xlink"><defs>
<filter id="Filter_0">
    <feFlood flood-color="rgb(53, 33, 53)" flood-opacity="1" result="floodOut"/>
    <feComposite operator="atop" in="floodOut" in2="SourceGraphic" result="compOut"/>
    <feBlend mode="normal" in="compOut" in2="SourceGraphic"/>
</filter>

</defs><symbol id="arrow-slider">
<path fill-rule="evenodd" d="M17.996,6.968 L3.416,6.968 L6.689,10.259 C7.80,10.653 7.80,11.291 6.689,11.685 C6.298,12.78 5.663,12.78 5.272,11.685 L0.312,6.696 C0.79,6.303 0.79,5.664 0.312,5.271 L5.272,0.282 C5.663,0.111 6.298,0.111 6.689,0.282 C7.80,0.676 7.80,1.314 6.689,1.708 L3.447,4.968 L17.996,4.968 C18.547,4.968 18.995,5.416 18.995,5.968 C18.995,6.520 18.547,6.968 17.996,6.968 Z"/>
</symbol><symbol id="arrow">
<path fill-rule="evenodd" d="M17.996,6.968 L3.416,6.968 L6.689,10.259 C7.80,10.653 7.80,11.291 6.689,11.685 C6.298,12.78 5.663,12.78 5.272,11.685 L0.312,6.696 C0.79,6.303 0.79,5.664 0.312,5.271 L5.272,0.282 C5.663,0.111 6.298,0.111 6.689,0.282 C7.80,0.676 7.80,1.314 6.689,1.708 L3.447,4.968 L17.996,4.968 C18.547,4.968 18.995,5.416 18.995,5.968 C18.995,6.520 18.547,6.968 17.996,6.968 Z"/>
</symbol><symbol id="icon-address">
<path fill-rule="evenodd" fill="rgb(249, 184, 30)" d="M4.505,11.996 C2.20,11.996 0.5,6.981 0.5,4.496 C0.5,2.11 2.20,0.3 4.505,0.3 C6.991,0.3 9.5,2.11 9.5,4.496 C9.5,6.981 6.991,11.996 4.505,11.996 ZM4.509,3.19 C3.681,3.19 3.9,3.689 3.9,4.515 C3.9,5.341 3.681,6.11 4.509,6.11 C5.338,6.11 6.9,5.341 6.9,4.515 C6.9,3.689 5.338,3.19 4.509,3.19 Z"/>
</symbol><symbol id="icon-email" viewBox="0 0 330.001 330.001">
<g id="XMLID_348_">
	<path d="M173.871,177.097c-2.641,1.936-5.756,2.903-8.87,2.903c-3.116,0-6.23-0.967-8.871-2.903L30,84.602
		L0.001,62.603L0,275.001c0.001,8.284,6.716,15,15,15L315.001,290c8.285,0,15-6.716,15-14.999V62.602l-30.001,22L173.871,177.097z" fill="rgb(249, 184, 30)"/>
	<polygon points="165.001,146.4 310.087,40.001 19.911,40" fill="rgb(249, 184, 30)"/>
</g>
<g>
</g>
<g>
</g>
<g>
</g>
<g>
</g>
<g>
</g>
<g>
</g>
<g>
</g>
<g>
</g>
<g>
</g>
<g>
</g>
<g>
</g>
<g>
</g>
<g>
</g>
<g>
</g>
<g>
</g>
</symbol><symbol id="icon-organization">
<path fill-rule="evenodd" fill="rgb(255, 222, 143)" d="M36.999,43.167 C19.63,43.167 0.0,38.844 0.0,30.834 C0.0,26.406 6.202,22.592 17.16,20.368 C17.685,20.230 18.337,20.660 18.474,21.327 C18.610,21.995 18.180,22.646 17.514,22.784 C8.373,24.664 2.466,27.823 2.466,30.834 C2.466,35.501 16.648,40.700 37.0,40.700 C57.351,40.700 71.533,35.501 71.533,30.834 C71.533,27.823 65.626,24.664 56.485,22.784 C55.818,22.646 55.389,21.995 55.525,21.327 C55.662,20.660 56.311,20.229 56.983,20.368 C67.797,22.592 73.999,26.408 73.999,30.834 C73.999,38.844 54.936,43.167 36.999,43.167 ZM64.133,3.701 C64.133,4.382 63.580,4.934 62.899,4.934 C62.219,4.934 61.666,4.382 61.666,3.701 C60.985,3.701 60.433,3.149 60.433,2.468 C60.433,1.787 60.985,1.235 61.666,1.235 C61.666,0.554 62.219,0.1 62.899,0.1 C63.580,0.1 64.133,0.554 64.133,1.235 C64.813,1.235 65.366,1.787 65.366,2.468 C65.366,3.149 64.813,3.701 64.133,3.701 ZM55.559,29.20 C55.852,28.405 56.588,28.144 57.203,28.439 C58.528,29.70 59.199,29.876 59.199,30.834 C59.199,35.529 40.707,35.767 36.999,35.767 C33.292,35.767 14.799,35.529 14.799,30.834 C14.799,29.899 15.437,29.110 16.695,28.487 C17.307,28.182 18.45,28.434 18.348,29.44 C18.650,29.655 18.399,30.395 17.790,30.697 C17.682,30.750 17.593,30.799 17.519,30.844 C19.103,31.803 25.677,33.300 36.999,33.300 C48.320,33.300 54.895,31.803 56.479,30.844 C56.391,30.791 56.280,30.730 56.141,30.664 C55.525,30.371 55.266,29.635 55.559,29.20 ZM46.866,13.568 L46.866,30.217 C46.866,30.898 46.314,31.450 45.633,31.450 C44.952,31.450 44.399,30.898 44.399,30.217 L44.399,13.568 C44.399,12.887 44.952,12.334 45.633,12.334 C46.314,12.334 46.866,12.887 46.866,13.568 ZM51.676,30.828 C50.999,30.760 50.504,30.156 50.572,29.477 C51.718,18.18 47.494,4.597 45.631,2.612 C43.703,4.624 39.545,18.80 40.694,30.723 C40.756,31.400 40.257,32.1 39.577,32.62 C39.540,32.66 39.502,32.67 39.465,32.67 C38.833,32.67 38.296,31.586 38.238,30.945 C37.149,18.966 40.868,4.202 43.873,0.913 C44.984,0.301 46.301,0.295 47.411,0.931 C50.361,4.192 54.130,18.692 53.27,29.724 C52.959,30.401 52.370,30.903 51.676,30.828 ZM29.599,13.568 L29.599,30.217 C29.599,30.898 29.47,31.450 28.366,31.450 C27.685,31.450 27.133,30.898 27.133,30.217 L27.133,13.568 C27.133,12.887 27.685,12.334 28.366,12.334 C29.47,12.334 29.599,12.887 29.599,13.568 ZM34.534,32.67 C34.497,32.67 34.459,32.66 34.422,32.62 C33.742,32.1 33.243,31.400 33.304,30.723 C34.454,18.80 30.296,4.624 28.367,2.612 C26.505,4.597 22.281,18.17 23.427,29.477 C23.494,30.156 23.0,30.760 22.323,30.828 C21.648,30.904 21.40,30.401 20.972,29.724 C19.868,18.692 23.638,4.192 26.588,0.931 C27.698,0.296 29.15,0.302 30.126,0.913 C33.131,4.202 36.850,18.966 35.761,30.945 C35.703,31.586 35.166,32.67 34.534,32.67 ZM14.799,12.334 C14.799,13.15 14.247,13.568 13.566,13.568 C12.885,13.568 12.333,13.15 12.333,12.334 C11.652,12.334 11.99,11.782 11.99,11.101 C11.99,10.420 11.652,9.868 12.333,9.868 C12.333,9.187 12.885,8.635 13.566,8.635 C14.247,8.635 14.799,9.187 14.799,9.868 C15.480,9.868 16.33,10.420 16.33,11.101 C16.33,11.782 15.480,12.334 14.799,12.334 ZM6.166,4.934 L4.933,4.934 L4.933,6.168 C4.933,6.848 4.380,7.401 3.699,7.401 C3.19,7.401 2.466,6.848 2.466,6.168 L2.466,4.934 L1.233,4.934 C0.552,4.934 0.0,4.382 0.0,3.701 C0.0,3.20 0.552,2.468 1.233,2.468 L2.466,2.468 L2.466,1.235 C2.466,0.554 3.19,0.1 3.699,0.1 C4.380,0.1 4.933,0.554 4.933,1.235 L4.933,2.468 L6.166,2.468 C6.847,2.468 7.399,3.20 7.399,3.701 C7.399,4.382 6.847,4.934 6.166,4.934 ZM16.33,43.167 C16.714,43.167 17.266,43.719 17.266,44.400 L17.266,47.449 C18.900,48.487 25.48,51.800 36.999,51.800 C44.465,51.800 49.610,50.499 52.611,49.407 C53.249,49.175 53.958,49.505 54.192,50.145 C54.424,50.785 54.95,51.493 53.455,51.726 C50.267,52.885 44.824,54.266 37.0,54.266 C26.490,54.266 20.203,51.838 17.266,50.298 L17.266,67.210 C18.805,68.242 24.679,71.533 37.0,71.533 C49.448,71.533 55.223,68.251 56.733,67.217 L56.733,44.400 C56.733,43.719 57.285,43.167 57.966,43.167 C58.647,43.167 59.199,43.719 59.199,44.400 L59.199,67.833 C59.199,68.182 59.51,68.515 58.791,68.749 C58.553,68.964 52.780,73.999 36.999,73.999 C21.401,73.999 15.467,68.976 15.221,68.762 C14.954,68.527 14.800,68.189 14.800,67.833 L14.800,44.400 C14.800,43.719 15.352,43.167 16.33,43.167 Z"/>
</symbol><symbol id="icon-phone">
<path fill-rule="evenodd" fill="rgb(249, 184, 30)" d="M10.751,8.703 L9.53,7.0 C8.715,6.662 8.154,6.672 7.804,7.23 L6.949,7.881 C6.895,7.851 6.839,7.820 6.780,7.787 C6.240,7.487 5.500,7.76 4.722,6.294 C3.942,5.512 3.531,4.769 3.231,4.227 C3.199,4.169 3.169,4.115 3.139,4.62 L3.713,3.487 L3.995,3.203 C4.346,2.851 4.355,2.290 4.18,1.951 L2.320,0.248 C1.982,0.89 1.422,0.79 1.71,0.271 L0.592,0.754 L0.606,0.767 C0.445,0.973 0.311,1.209 0.211,1.465 C0.119,1.708 0.62,1.940 0.36,2.172 C0.188,4.36 0.661,5.740 2.966,8.52 C6.153,11.248 8.722,11.6 8.832,10.995 C9.74,10.966 9.305,10.908 9.540,10.816 C9.793,10.717 10.29,10.583 10.233,10.423 L10.244,10.432 L10.728,9.956 C11.79,9.604 11.88,9.42 10.751,8.703 Z"/>
</symbol><symbol id="icon-place">
<path fill-rule="evenodd" fill="rgb(255, 222, 143)" d="M74.691,74.568 C74.453,74.842 74.109,74.999 73.747,74.999 L61.248,74.999 C60.558,74.999 59.998,74.439 59.998,73.749 C59.998,73.59 60.558,72.500 61.248,72.500 L72.273,72.500 C72.77,71.381 71.746,69.645 71.270,67.499 L57.196,67.499 C57.328,69.8 57.413,70.528 57.449,72.57 C57.478,72.629 57.498,73.197 57.498,73.749 C57.498,74.439 56.938,74.999 56.248,74.999 C55.558,74.999 54.998,74.439 54.998,73.749 C54.998,62.303 48.19,44.999 37.499,44.999 C26.980,44.999 20.0,62.303 20.0,73.749 C20.0,74.439 19.440,74.999 18.750,74.999 C18.61,74.999 17.501,74.439 17.501,73.749 C17.501,73.197 17.521,72.629 17.549,72.57 C17.586,70.528 17.670,69.8 17.803,67.499 L3.729,67.499 C3.253,69.645 2.922,71.381 2.725,72.500 L13.751,72.500 C14.441,72.500 15.1,73.59 15.1,73.749 C15.1,74.439 14.441,74.999 13.751,74.999 L1.252,74.999 C0.889,74.999 0.545,74.842 0.308,74.568 C0.71,74.294 0.36,73.931 0.14,73.572 C0.33,73.440 1.975,60.138 7.441,47.18 C11.973,36.139 17.658,28.431 24.224,24.99 C24.314,24.15 24.409,23.947 24.519,23.892 C28.537,21.316 32.885,19.999 37.499,19.999 C42.115,19.999 46.463,21.316 50.482,23.894 C50.590,23.947 50.682,24.15 50.771,24.97 C57.340,28.427 63.24,36.137 67.558,47.18 C73.24,60.138 74.966,73.439 74.985,73.572 C75.36,73.931 74.928,74.294 74.691,74.568 ZM37.499,42.499 C43.310,42.499 48.119,46.697 51.564,52.467 C48.816,44.424 44.288,37.22 37.499,31.979 C30.711,37.22 26.183,44.424 23.435,52.467 C26.880,46.697 31.689,42.499 37.499,42.499 ZM4.310,64.999 L18.48,64.999 C19.34,57.6 21.344,49.453 24.814,43.147 C27.639,38.11 31.189,33.773 35.346,30.521 C32.394,28.672 29.59,27.245 25.310,26.352 C13.316,34.493 7.71,53.631 4.310,64.999 ZM37.499,22.499 C34.167,22.499 31.137,23.276 28.370,24.606 C31.637,25.629 34.691,27.92 37.499,28.972 C40.308,27.92 43.362,25.629 46.629,24.606 C43.862,23.276 40.832,22.499 37.499,22.499 ZM49.689,26.352 C45.940,27.245 42.605,28.672 39.653,30.521 C43.810,33.773 47.360,38.11 50.185,43.147 C53.655,49.453 55.965,57.6 56.951,64.999 L70.689,64.999 C67.927,53.631 61.683,34.493 49.689,26.352 ZM49.904,9.228 C49.710,9.694 49.254,9.999 48.749,9.999 L41.249,9.999 C40.559,9.999 39.999,9.439 39.999,8.749 C39.999,8.59 40.559,7.499 41.249,7.499 L45.732,7.499 L44.115,5.883 C43.626,5.394 43.626,4.604 44.115,4.116 L45.732,2.499 L37.499,2.499 L37.499,16.249 C37.499,16.939 36.939,17.500 36.250,17.500 C35.560,17.500 35.0,16.939 35.0,16.249 L35.0,1.249 C35.0,0.559 35.560,0.0 36.250,0.0 L48.749,0.0 C49.254,0.0 49.710,0.304 49.904,0.771 C50.97,1.238 49.990,1.776 49.632,2.133 L46.766,4.999 L49.632,7.865 C49.990,8.223 50.98,8.761 49.904,9.228 Z"/>
</symbol><symbol id="item1">
<path fill-rule="evenodd" fill="rgb(255, 191, 29)" d="M75.0,76.999 L64.999,76.999 L64.999,74.999 L75.0,74.999 L75.0,64.999 L76.999,64.999 L76.999,74.999 L76.999,76.999 L75.0,76.999 ZM75.0,1.999 L64.999,1.999 L64.999,0.0 L75.0,0.0 L76.999,0.0 L76.999,1.999 L76.999,11.999 L75.0,11.999 L75.0,1.999 ZM63.679,36.702 C63.23,37.164 62.129,37.647 61.176,38.105 L59.689,54.346 C59.627,55.16 58.768,55.309 58.308,54.813 L47.486,43.116 L50.936,57.855 C51.76,58.451 50.484,58.986 49.902,58.788 L44.93,56.817 L39.926,61.102 C39.495,61.546 38.717,61.329 38.577,60.729 L35.113,45.929 C35.79,45.936 30.551,61.434 30.551,61.434 C30.373,62.47 29.542,62.204 29.152,61.696 C29.152,61.696 19.39,48.525 19.23,48.498 C17.234,48.683 15.502,48.823 13.845,48.912 C13.830,48.913 13.815,48.913 13.801,48.913 C13.380,48.913 13.28,48.585 13.5,48.161 C12.981,47.723 13.319,47.348 13.758,47.324 C19.982,46.988 27.378,45.937 35.147,44.287 C42.535,42.718 49.749,40.724 56.11,38.522 C57.40,38.160 58.520,37.578 59.900,36.946 C60.14,36.846 60.155,36.778 60.309,36.755 C61.268,36.302 62.150,35.831 62.759,35.403 C63.119,35.150 63.617,35.235 63.871,35.594 C64.125,35.953 64.39,36.449 63.679,36.702 ZM20.868,48.294 L29.458,59.479 L33.279,46.304 C29.22,47.151 24.825,47.827 20.868,48.294 ZM36.673,45.594 L39.799,58.949 L43.299,55.349 C43.514,55.128 43.837,55.51 44.129,55.149 L49.56,56.821 L45.897,43.326 C42.861,44.157 39.764,44.918 36.673,45.594 ZM56.542,40.21 C54.130,40.870 51.611,41.678 49.29,42.437 L58.264,52.418 L59.505,38.860 C58.354,39.352 57.264,39.767 56.542,40.21 ZM42.651,53.313 C42.493,53.511 42.260,53.614 42.25,53.614 C41.852,53.614 41.677,53.558 41.530,53.442 C41.185,53.169 41.127,52.669 41.401,52.325 L43.739,49.386 C44.13,49.42 44.515,48.985 44.860,49.258 C45.205,49.530 45.263,50.31 44.989,50.375 L42.651,53.313 ZM41.375,50.63 C41.217,50.261 40.985,50.364 40.749,50.364 C40.576,50.364 40.401,50.307 40.254,50.191 C39.909,49.919 39.851,49.419 40.125,49.75 L42.463,46.136 C42.737,45.792 43.239,45.734 43.584,46.7 C43.929,46.280 43.987,46.780 43.713,47.124 L41.375,50.63 ZM63.871,35.594 C63.617,35.235 64.125,35.953 63.871,35.594 ZM29.686,37.245 C29.686,37.713 29.304,38.94 28.834,38.94 C28.365,38.94 27.983,37.713 27.983,37.245 C27.983,36.777 28.365,36.397 28.834,36.397 C29.304,36.397 29.686,36.777 29.686,37.245 ZM19.196,43.293 C19.196,43.761 18.814,44.142 18.345,44.142 C17.875,44.142 17.493,43.761 17.493,43.293 C17.493,42.825 17.875,42.445 18.345,42.445 C18.814,42.445 19.196,42.825 19.196,43.293 ZM61.700,31.38 C61.347,31.66 60.993,31.79 60.640,31.79 C60.124,31.79 59.608,31.52 59.91,31.3 L58.238,35.227 C58.151,35.660 57.710,35.943 57.278,35.844 C56.862,35.749 56.590,35.330 56.674,34.913 L57.505,30.799 C56.848,30.695 56.189,30.570 55.526,30.440 C53.157,29.975 50.710,29.420 48.224,28.792 L46.385,39.72 C46.309,39.499 45.887,39.791 45.460,39.715 C45.32,39.639 44.738,39.220 44.814,38.793 L46.675,28.392 C46.428,28.327 46.181,28.261 45.933,28.195 L34.368,40.671 C33.905,41.171 33.40,40.869 32.987,40.194 C32.987,40.194 31.826,24.828 31.759,23.736 C31.557,23.663 31.356,23.590 31.154,23.516 L24.892,37.419 C24.641,37.977 23.845,38.45 23.503,37.536 L20.81,32.459 L14.162,33.350 C13.550,33.442 13.61,32.801 13.315,32.238 L19.413,18.698 C17.849,17.975 16.346,17.241 14.919,16.501 C14.529,16.298 14.376,15.818 14.580,15.428 C14.783,15.39 15.265,14.887 15.656,15.90 C26.771,20.855 42.542,26.267 55.835,28.880 C57.879,29.282 59.722,29.602 61.572,29.453 C62.11,29.418 62.396,29.744 62.431,30.181 C62.467,30.619 62.140,31.3 61.700,31.38 ZM20.865,19.359 L15.369,31.560 L20.342,30.811 C20.648,30.765 20.952,30.899 21.123,31.154 L24.26,35.461 L29.656,22.962 C26.606,21.816 23.650,20.606 20.865,19.359 ZM33.334,24.296 L34.435,38.256 L44.201,27.720 C40.575,26.704 36.914,25.550 33.334,24.296 ZM20.464,28.460 C20.75,28.460 19.735,28.177 19.676,27.781 C19.612,27.347 19.913,26.943 20.349,26.879 L24.71,26.331 C24.507,26.268 24.913,26.567 24.977,27.2 C25.41,27.437 24.740,27.840 24.304,27.905 L20.582,28.452 C20.542,28.458 20.503,28.460 20.464,28.460 ZM21.766,25.221 C21.377,25.221 21.36,24.936 20.978,24.541 C20.913,24.107 21.214,23.703 21.650,23.639 L25.373,23.91 C25.809,23.27 26.214,23.327 26.279,23.762 C26.343,24.196 26.42,24.601 25.606,24.665 L21.883,25.212 C21.844,25.218 21.805,25.221 21.766,25.221 ZM56.388,23.403 C54.828,23.403 53.559,22.138 53.559,20.584 C53.559,19.29 54.828,17.764 56.388,17.764 C57.948,17.764 59.217,19.29 59.217,20.584 C59.217,22.138 57.948,23.403 56.388,23.403 ZM56.388,19.354 C55.708,19.354 55.154,19.906 55.154,20.584 C55.154,21.262 55.708,21.813 56.388,21.813 C57.68,21.813 57.621,21.262 57.621,20.584 C57.621,19.906 57.68,19.354 56.388,19.354 ZM46.39,20.203 C45.569,20.203 45.187,19.823 45.187,19.355 C45.187,18.887 45.569,18.506 46.39,18.506 C46.508,18.506 46.890,18.887 46.890,19.355 C46.890,19.823 46.508,20.203 46.39,20.203 ZM0.0,76.999 L0.0,74.999 L0.0,64.999 L1.999,64.999 L1.999,74.999 L11.999,74.999 L11.999,76.999 L1.999,76.999 L0.0,76.999 ZM1.999,11.999 L0.0,11.999 L0.0,1.999 L0.0,0.0 L1.999,0.0 L11.999,0.0 L11.999,1.999 L1.999,1.999 L1.999,11.999 Z"/>
</symbol><symbol id="item2">
<path fill-rule="evenodd" fill="rgb(255, 191, 29)" d="M74.999,76.999 L64.999,76.999 L64.999,74.999 L74.999,74.999 L74.999,64.999 L76.999,64.999 L76.999,74.999 L76.999,76.999 L74.999,76.999 ZM74.999,1.999 L64.999,1.999 L64.999,0.0 L74.999,0.0 L76.999,0.0 L76.999,1.999 L76.999,11.999 L74.999,11.999 L74.999,1.999 ZM61.999,63.999 L59.999,63.999 L59.999,61.999 L53.999,61.999 L56.454,42.756 L56.454,39.914 C47.181,33.552 42.562,27.466 40.315,23.457 C39.482,21.971 38.904,20.654 38.500,19.551 C38.97,20.654 37.518,21.971 36.685,23.457 C34.439,27.467 29.819,33.553 20.545,39.915 L20.545,42.755 L22.999,61.999 L18.0,61.999 L18.0,63.999 L15.999,63.999 L15.999,61.999 L13.0,61.999 L15.708,42.756 L15.708,38.527 L15.708,34.592 C15.708,29.249 17.623,24.63 21.98,19.991 C24.306,16.233 28.669,13.612 33.472,12.537 C33.456,12.404 33.445,12.260 33.445,12.103 C33.445,10.391 34.834,8.999 36.541,8.999 C37.372,8.999 37.974,9.286 38.498,9.680 C39.7,9.299 39.629,8.999 40.459,8.999 C42.168,8.999 43.559,10.391 43.559,12.103 C43.559,12.258 43.547,12.401 43.528,12.536 C48.332,13.611 52.696,16.231 55.904,19.989 C59.381,24.62 61.296,29.248 61.296,34.592 L61.296,42.804 L63.999,61.999 L61.999,61.999 L61.999,63.999 ZM15.62,60.30 L21.206,60.30 L18.806,43.715 L17.448,43.715 L15.62,60.30 ZM16.999,41.999 L18.999,41.999 L18.999,39.999 L16.999,39.999 L16.999,41.999 ZM34.212,14.240 C24.516,16.234 17.543,24.697 17.543,34.592 L17.543,38.527 L19.341,38.527 C28.355,32.376 32.835,26.535 35.8,22.705 C36.332,20.370 36.981,18.483 37.296,17.270 C36.420,16.521 34.964,15.221 34.212,14.240 ZM40.459,10.819 C39.975,10.819 39.647,11.51 39.136,11.538 L38.507,12.138 L37.872,11.545 C37.287,11.0 37.12,10.819 36.541,10.819 C35.834,10.819 35.280,11.383 35.280,12.103 C35.280,12.451 35.364,12.619 35.480,12.852 L35.489,12.870 C35.762,13.420 37.192,14.770 38.412,15.821 L38.500,15.827 L38.591,15.821 C39.921,14.680 41.269,13.375 41.505,12.883 L41.520,12.850 C41.630,12.622 41.724,12.424 41.724,12.103 C41.724,11.383 41.168,10.819 40.459,10.819 ZM59.461,34.592 C59.461,24.696 52.488,16.234 42.792,14.240 C42.44,15.223 40.585,16.523 39.705,17.271 C40.21,18.484 40.669,20.371 41.993,22.705 C44.165,26.535 48.646,32.376 57.659,38.527 L59.461,38.527 L59.461,34.592 ZM59.999,39.999 L58.0,39.999 L58.0,41.999 L59.999,41.999 L59.999,39.999 ZM59.552,43.715 L58.193,43.715 L55.808,60.30 L61.951,60.30 L59.552,43.715 ZM0.0,76.999 L0.0,74.999 L0.0,64.999 L1.999,64.999 L1.999,74.999 L11.999,74.999 L11.999,76.999 L1.999,76.999 L0.0,76.999 ZM1.999,11.999 L0.0,11.999 L0.0,1.999 L0.0,0.0 L1.999,0.0 L11.999,0.0 L11.999,1.999 L1.999,1.999 L1.999,11.999 ZM48.999,48.999 L41.999,48.999 L42.36,49.650 C42.36,51.269 40.505,52.598 38.999,52.999 L38.999,62.999 L41.999,62.999 L42.26,65.14 L37.999,64.999 L33.974,65.14 L33.999,62.999 L36.999,62.999 L36.999,52.999 C35.494,52.598 33.952,51.417 33.999,48.999 L26.999,48.999 L26.999,46.999 L48.999,46.999 L48.999,48.999 ZM39.999,48.999 L35.999,48.999 L35.999,49.999 C35.999,50.929 37.62,50.999 37.999,50.999 C38.937,50.999 39.999,50.929 39.999,49.999 L39.999,48.999 Z"/>
</symbol><symbol id="item3">
<path fill-rule="evenodd" fill="rgb(250, 185, 30)" d="M74.999,76.999 L64.999,76.999 L64.999,74.999 L74.999,74.999 L74.999,64.999 L76.999,64.999 L76.999,74.999 L76.999,76.999 L74.999,76.999 ZM74.999,1.999 L64.999,1.999 L64.999,0.0 L74.999,0.0 L76.999,0.0 L76.999,1.999 L76.999,11.999 L74.999,11.999 L74.999,1.999 ZM52.196,24.855 C51.729,24.855 51.351,24.477 51.351,24.10 L51.351,16.839 L27.346,16.839 L27.346,28.741 C27.346,29.208 26.967,29.586 26.501,29.586 C26.34,29.586 25.655,29.208 25.655,28.741 L25.655,15.994 C25.655,15.528 26.34,15.149 26.501,15.149 L52.196,15.149 C52.663,15.149 53.41,15.528 53.41,15.994 L53.41,24.10 C53.41,24.477 52.663,24.855 52.196,24.855 ZM42.350,41.314 C42.350,41.811 41.945,42.216 41.447,42.216 C40.950,42.216 40.545,41.811 40.545,41.314 C40.545,40.817 40.950,40.412 41.447,40.412 C41.945,40.412 42.350,40.817 42.350,41.314 ZM30.301,40.170 C34.485,40.170 37.890,43.573 37.890,47.755 C37.890,51.937 34.485,55.339 30.301,55.339 C26.117,55.339 22.712,51.937 22.712,47.755 C22.712,43.573 26.116,40.170 30.301,40.170 ZM30.301,53.650 C33.553,53.650 36.199,51.5 36.199,47.755 C36.199,44.504 33.553,41.860 30.301,41.860 C27.49,41.860 24.403,44.504 24.403,47.755 C24.403,51.5 27.49,53.650 30.301,53.650 ZM37.756,34.68 L37.756,34.756 C37.756,35.703 38.527,36.473 39.475,36.473 L42.297,36.473 C44.473,36.473 46.244,38.244 46.244,40.419 L46.244,55.904 C46.244,58.80 44.473,59.849 42.296,59.849 L18.305,59.849 C16.128,59.849 14.357,58.80 14.357,55.904 L14.357,48.923 C14.357,48.456 14.736,48.78 15.203,48.78 C15.669,48.78 16.48,48.457 16.48,48.923 L16.48,55.904 C16.48,57.148 17.61,58.160 18.305,58.160 L42.297,58.160 C43.541,58.160 44.554,57.148 44.554,55.904 L44.554,40.419 C44.554,39.175 43.541,38.163 42.297,38.163 L39.475,38.163 C37.596,38.163 36.66,36.634 36.66,34.755 L36.66,34.68 C36.66,33.812 35.857,33.604 35.601,33.604 L25.1,33.604 C24.745,33.604 24.536,33.812 24.536,34.68 L24.536,34.755 C24.536,36.634 23.7,38.163 21.127,38.163 L18.305,38.163 C17.61,38.163 16.48,39.175 16.48,40.419 L16.48,43.791 C16.48,44.258 15.669,44.636 15.203,44.636 C14.736,44.636 14.357,44.258 14.357,43.791 L14.357,40.419 C14.357,38.244 16.128,36.473 18.305,36.473 L21.127,36.473 C22.74,36.473 22.845,35.703 22.845,34.756 L22.845,34.68 C22.845,32.880 23.812,31.914 25.1,31.914 L35.601,31.914 C36.790,31.914 37.756,32.880 37.756,34.68 ZM0.0,76.999 L0.0,74.999 L0.0,64.999 L1.999,64.999 L1.999,74.999 L11.999,74.999 L11.999,76.999 L1.999,76.999 L0.0,76.999 ZM1.999,11.999 L0.0,11.999 L0.0,1.999 L0.0,0.0 L1.999,0.0 L11.999,0.0 L11.999,1.999 L1.999,1.999 L1.999,11.999 ZM48.558,45.191 L54.206,47.376 L58.904,35.245 L43.275,29.200 L41.397,34.397 C41.238,34.836 40.754,35.64 40.315,34.905 C39.876,34.747 39.648,34.262 39.807,33.823 L41.979,27.813 C42.56,27.599 42.216,27.425 42.423,27.331 C42.630,27.237 42.866,27.230 43.79,27.312 L60.302,33.975 C60.511,34.56 60.680,34.216 60.770,34.421 C60.861,34.626 60.866,34.859 60.785,35.67 L55.477,48.774 C55.310,49.206 54.796,49.416 54.384,49.257 L47.948,46.767 C47.513,46.598 47.296,46.109 47.465,45.674 C47.633,45.239 48.123,45.23 48.558,45.191 ZM30.73,29.811 C29.606,29.811 29.227,29.433 29.227,28.966 L29.227,19.580 C29.227,19.113 29.606,18.735 30.73,18.735 L48.541,18.735 C49.8,18.735 49.386,19.113 49.386,19.580 L49.386,22.959 C49.386,23.426 49.8,23.804 48.541,23.804 C48.74,23.804 47.696,23.426 47.696,22.959 L47.696,20.424 L30.918,20.424 L30.918,28.966 C30.918,29.433 30.539,29.811 30.73,29.811 ZM48.802,53.219 L54.942,55.595 L63.607,33.220 L41.221,24.560 L39.168,29.859 C39.0,30.294 38.511,30.511 38.75,30.342 C37.640,30.174 37.423,29.685 37.592,29.249 L39.949,23.163 C40.118,22.727 40.607,22.511 41.43,22.680 L65.6,31.950 C65.441,32.118 65.657,32.607 65.489,33.42 L56.214,56.992 C56.84,57.327 55.764,57.532 55.425,57.532 C55.324,57.532 55.221,57.514 55.120,57.475 L48.192,54.795 C47.756,54.626 47.540,54.137 47.709,53.702 C47.877,53.267 48.367,53.51 48.802,53.219 Z"/>
</symbol><symbol id="item4">
<path fill-rule="evenodd" fill="rgb(255, 191, 29)" d="M74.999,76.999 L64.999,76.999 L64.999,74.999 L74.999,74.999 L74.999,64.999 L76.999,64.999 L76.999,74.999 L76.999,76.999 L74.999,76.999 ZM74.999,1.999 L64.999,1.999 L64.999,0.0 L74.999,0.0 L76.999,0.0 L76.999,1.999 L76.999,11.999 L74.999,11.999 L74.999,1.999 ZM65.725,16.789 C66.77,17.135 66.77,17.693 65.725,18.38 L65.89,18.663 C64.913,18.835 64.683,18.922 64.453,18.922 C64.222,18.922 63.992,18.835 63.817,18.663 C63.465,18.318 63.465,17.759 63.817,17.414 L64.453,16.789 C64.804,16.444 65.373,16.444 65.725,16.789 ZM62.126,21.572 C61.951,21.744 61.720,21.831 61.490,21.831 C61.260,21.831 61.29,21.744 60.854,21.572 C60.502,21.227 60.502,20.668 60.854,20.323 L61.490,19.698 C61.842,19.353 62.410,19.353 62.762,19.698 C63.114,20.44 63.114,20.602 62.762,20.947 L62.126,21.572 ZM65.989,29.782 C65.989,30.163 65.741,30.499 65.373,30.620 L60.402,32.247 L58.744,37.128 C58.622,37.490 58.279,37.733 57.891,37.733 C57.503,37.733 57.159,37.490 57.38,37.128 L55.380,32.247 L50.409,30.620 C50.41,30.499 49.793,30.163 49.793,29.782 C49.793,29.401 50.41,29.64 50.409,28.944 L55.380,27.316 L57.38,22.435 C57.159,22.74 57.503,21.831 57.891,21.831 C58.279,21.831 58.622,22.74 58.744,22.435 L60.402,27.316 L65.373,28.944 C65.741,29.64 65.989,29.401 65.989,29.782 ZM59.406,28.853 C59.137,28.765 58.926,28.558 58.838,28.294 L57.891,25.508 L56.945,28.294 C56.856,28.558 56.645,28.765 56.376,28.853 L53.538,29.782 L56.376,30.710 C56.645,30.799 56.856,31.5 56.945,31.269 L57.891,34.56 L58.838,31.269 C58.926,31.5 59.137,30.799 59.406,30.710 L62.244,29.782 L59.406,28.853 ZM53.61,14.998 C52.935,15.368 52.585,15.602 52.208,15.602 C52.114,15.602 52.18,15.588 51.923,15.556 C51.453,15.402 51.198,14.901 51.355,14.438 L51.640,13.601 C51.797,13.138 52.303,12.886 52.777,13.42 C53.248,13.196 53.503,13.696 53.346,14.159 L53.61,14.998 ZM51.849,18.568 L51.243,20.353 C51.118,20.723 50.767,20.957 50.390,20.957 C50.296,20.957 50.200,20.942 50.106,20.911 C49.634,20.757 49.380,20.257 49.537,19.794 L50.144,18.8 C50.300,17.546 50.807,17.294 51.281,17.450 C51.752,17.605 52.7,18.105 51.849,18.568 ZM50.32,23.923 L49.747,24.760 C49.622,25.131 49.271,25.365 48.894,25.365 C48.800,25.365 48.704,25.351 48.609,25.320 C48.138,25.165 47.883,24.665 48.41,24.202 L48.325,23.364 C48.483,22.901 48.988,22.648 49.463,22.805 C49.934,22.959 50.189,23.460 50.32,23.923 ZM47.94,30.668 L23.701,30.665 C22.213,30.665 21.2,31.855 21.2,33.316 L21.2,52.751 C21.2,54.212 22.213,55.401 23.701,55.401 L41.696,55.401 C42.193,55.401 42.596,55.797 42.596,56.285 C42.596,56.773 42.193,57.168 41.696,57.168 L23.701,57.168 C21.221,57.168 19.203,55.187 19.203,52.751 L19.203,33.316 C19.203,30.880 21.221,28.898 23.701,28.898 L47.94,28.901 C47.592,28.901 47.994,29.297 47.994,29.785 C47.994,30.272 47.591,30.668 47.94,30.668 ZM39.896,25.365 C39.399,25.365 38.997,24.969 38.997,24.481 L38.997,23.598 C38.997,23.110 39.399,22.714 39.896,22.714 C40.394,22.714 40.796,23.110 40.796,23.598 L40.796,24.481 C40.796,24.969 40.394,25.365 39.896,25.365 ZM39.896,20.947 C39.399,20.947 38.997,20.552 38.997,20.64 L38.997,18.297 C38.997,17.809 39.399,17.414 39.896,17.414 C40.394,17.414 40.796,17.809 40.796,18.297 L40.796,20.64 C40.796,20.552 40.394,20.947 39.896,20.947 ZM39.896,15.647 C39.399,15.647 38.997,15.251 38.997,14.763 L38.997,13.880 C38.997,13.392 39.399,12.997 39.896,12.997 C40.394,12.997 40.796,13.392 40.796,13.880 L40.796,14.763 C40.796,15.251 40.394,15.647 39.896,15.647 ZM31.183,25.320 C31.90,25.350 30.993,25.365 30.899,25.365 C30.522,25.365 30.171,25.131 30.46,24.760 L29.761,23.923 C29.604,23.460 29.859,22.959 30.330,22.806 C30.800,22.651 31.311,22.901 31.468,23.364 L31.752,24.202 C31.910,24.665 31.655,25.165 31.183,25.320 ZM29.687,20.911 C29.593,20.942 29.496,20.957 29.403,20.957 C29.26,20.957 28.675,20.723 28.550,20.353 L27.943,18.568 C27.786,18.105 28.41,17.605 28.512,17.450 C28.986,17.296 29.494,17.546 29.649,18.8 L30.256,19.794 C30.413,20.257 30.159,20.757 29.687,20.911 ZM27.870,15.556 C27.775,15.587 27.679,15.602 27.584,15.602 C27.207,15.602 26.857,15.368 26.731,14.998 L26.447,14.159 C26.290,13.696 26.544,13.196 27.16,13.42 C27.485,12.888 27.997,13.138 28.153,13.601 L28.438,14.438 C28.595,14.901 28.340,15.402 27.870,15.556 ZM20.102,25.365 C19.872,25.365 19.642,25.278 19.466,25.106 L18.830,24.481 C18.478,24.136 18.478,23.578 18.830,23.232 C19.182,22.887 19.750,22.887 20.102,23.232 L20.738,23.857 C21.90,24.202 21.90,24.760 20.738,25.106 C20.563,25.278 20.333,25.365 20.102,25.365 ZM17.95,22.413 C16.865,22.413 16.635,22.327 16.459,22.154 L15.274,20.990 C14.923,20.645 14.923,20.86 15.274,19.741 C15.625,19.396 16.195,19.396 16.547,19.741 L17.731,20.905 C18.83,21.250 18.83,21.809 17.731,22.154 C17.556,22.327 17.326,22.413 17.95,22.413 ZM13.541,18.922 C13.310,18.922 13.80,18.835 12.904,18.663 L12.268,18.38 C11.917,17.693 11.917,17.135 12.268,16.789 C12.620,16.444 13.189,16.444 13.541,16.789 L14.177,17.414 C14.528,17.759 14.528,18.318 14.177,18.663 C14.1,18.835 13.771,18.922 13.541,18.922 ZM0.0,76.999 L0.0,74.999 L0.0,64.999 L1.999,64.999 L1.999,74.999 L11.999,74.999 L11.999,76.999 L1.999,76.999 L0.0,76.999 ZM1.999,11.999 L0.0,11.999 L0.0,1.999 L0.0,0.0 L1.999,0.0 L11.999,0.0 L11.999,1.999 L1.999,1.999 L1.999,11.999 ZM32.698,58.935 C33.196,58.935 33.598,59.331 33.598,59.819 L33.598,65.119 C33.598,65.607 33.196,66.3 32.698,66.3 C32.201,66.3 31.799,65.607 31.799,65.119 L31.799,59.819 C31.799,59.331 32.201,58.935 32.698,58.935 ZM25.501,51.868 C25.3,51.868 24.601,51.472 24.601,50.984 L24.601,35.82 C24.601,34.595 25.3,34.199 25.501,34.199 L52.493,34.199 C52.990,34.199 53.392,34.595 53.392,35.82 L53.392,50.984 C53.392,51.472 52.990,51.868 52.493,51.868 L25.501,51.868 ZM51.593,35.966 L26.400,35.966 L26.400,50.101 L51.593,50.101 L51.593,35.966 ZM30.899,37.733 C31.397,37.733 31.799,38.129 31.799,38.616 L31.799,47.451 C31.799,47.938 31.397,48.334 30.899,48.334 C30.402,48.334 29.999,47.938 29.999,47.451 L29.999,38.616 C29.999,38.129 30.402,37.733 30.899,37.733 ZM36.297,37.733 C36.795,37.733 37.197,38.129 37.197,38.616 L37.197,47.451 C37.197,47.938 36.795,48.334 36.297,48.334 C35.800,48.334 35.398,47.938 35.398,47.451 L35.398,38.616 C35.398,38.129 35.800,37.733 36.297,37.733 ZM41.696,37.733 C42.193,37.733 42.596,38.129 42.596,38.616 L42.596,47.451 C42.596,47.938 42.193,48.334 41.696,48.334 C41.198,48.334 40.796,47.938 40.796,47.451 L40.796,38.616 C40.796,38.129 41.198,37.733 41.696,37.733 ZM47.94,37.733 C47.592,37.733 47.994,38.129 47.994,38.616 L47.994,47.451 C47.994,47.938 47.592,48.334 47.94,48.334 C46.597,48.334 46.195,47.938 46.195,47.451 L46.195,38.616 C46.195,38.129 46.597,37.733 47.94,37.733 ZM45.295,55.401 L54.292,55.401 C55.780,55.401 56.991,54.212 56.991,52.751 L56.991,40.383 C56.991,39.895 57.394,39.500 57.891,39.500 C58.388,39.500 58.791,39.895 58.791,40.383 L58.791,52.751 C58.791,55.187 56.773,57.168 54.292,57.168 L46.195,57.168 L46.195,65.119 C46.195,65.607 45.792,66.3 45.295,66.3 C44.797,66.3 44.395,65.607 44.395,65.119 L44.395,56.285 C44.395,55.797 44.797,55.401 45.295,55.401 Z"/>
</symbol><symbol id="item5">
<path fill-rule="evenodd" fill="rgb(250, 185, 30)" d="M74.999,76.999 L64.999,76.999 L64.999,74.999 L74.999,74.999 L74.999,64.999 L76.999,64.999 L76.999,74.999 L76.999,76.999 L74.999,76.999 ZM74.999,1.999 L64.999,1.999 L64.999,0.0 L74.999,0.0 L76.999,0.0 L76.999,1.999 L76.999,11.999 L74.999,11.999 L74.999,1.999 ZM63.229,52.930 L51.330,60.339 C51.236,60.401 48.408,62.239 42.32,62.239 C36.566,62.239 28.688,57.895 28.354,57.710 C28.351,57.710 26.696,56.938 23.484,56.938 C22.996,56.938 22.601,56.542 22.601,56.54 C22.601,55.566 22.996,55.171 23.484,55.171 C27.183,55.171 29.99,56.107 29.178,56.147 C29.290,56.208 37.25,60.472 42.32,60.472 C47.806,60.472 50.353,58.866 50.379,58.850 L62.320,51.415 C62.754,51.164 63.46,50.783 63.168,50.327 C63.290,49.871 63.228,49.395 62.992,48.986 C62.505,48.141 61.421,47.851 60.579,48.339 L50.367,53.314 C48.423,54.287 46.582,54.287 42.915,54.287 C39.350,54.287 34.157,53.428 33.937,53.391 C33.457,53.311 33.132,52.856 33.211,52.374 C33.292,51.894 33.746,51.570 34.228,51.649 C34.280,51.657 39.497,52.520 42.915,52.520 C46.410,52.520 48.6,52.520 49.585,51.729 L59.751,46.779 C60.512,46.336 61.464,46.210 62.377,46.456 C63.288,46.700 64.50,47.285 64.522,48.102 C64.994,48.920 65.119,49.872 64.874,50.785 C64.631,51.696 64.46,52.458 63.229,52.930 ZM55.582,14.881 C57.347,15.508 58.718,16.881 59.343,18.648 C59.505,19.107 59.264,19.613 58.805,19.776 C58.708,19.810 58.608,19.827 58.510,19.827 C58.147,19.827 57.806,19.601 57.678,19.237 C57.237,17.994 56.234,16.988 54.991,16.547 C54.531,16.384 54.292,15.879 54.454,15.419 C54.618,14.959 55.122,14.720 55.582,14.881 ZM47.754,40.926 C47.623,40.997 47.477,41.34 47.331,41.34 C47.185,41.34 47.41,40.997 46.908,40.926 C36.857,35.441 31.433,26.417 31.433,20.712 C31.433,15.352 35.792,10.993 41.149,10.993 C42.501,10.993 43.810,11.266 45.39,11.804 C45.486,12.0 45.690,12.521 45.495,12.968 C45.299,13.415 44.779,13.618 44.332,13.423 C43.326,12.983 42.255,12.760 41.149,12.760 C36.766,12.760 33.200,16.327 33.200,20.712 C33.200,25.899 38.475,34.142 47.331,39.139 C56.187,34.142 61.463,25.899 61.463,20.712 C61.463,16.327 57.897,12.760 53.514,12.760 C50.435,12.760 47.605,14.564 46.304,17.357 C46.98,17.799 45.573,17.992 45.130,17.785 C44.689,17.579 44.497,17.53 44.704,16.610 C46.292,13.198 49.751,10.993 53.514,10.993 C58.871,10.993 63.229,15.352 63.229,20.712 C63.229,26.417 57.806,35.441 47.754,40.926 ZM40.265,48.102 L45.565,48.102 C47.637,48.102 48.721,49.128 48.839,49.245 C49.183,49.589 49.183,50.148 48.839,50.494 C48.666,50.666 48.441,50.753 48.214,50.753 C47.988,50.753 47.762,50.666 47.590,50.494 C47.572,50.478 46.906,49.869 45.565,49.869 L40.265,49.869 C38.646,49.869 36.816,48.496 34.878,47.42 C33.332,45.883 31.580,44.568 30.550,44.568 L23.484,44.568 C22.996,44.568 22.601,44.172 22.601,43.684 C22.601,43.197 22.996,42.801 23.484,42.801 L30.550,42.801 C32.169,42.801 33.999,44.174 35.938,45.628 C37.483,46.787 39.235,48.102 40.265,48.102 ZM16.419,58.263 C16.419,58.994 15.824,59.588 15.94,59.588 C14.364,59.588 13.769,58.994 13.769,58.263 C13.769,57.532 14.364,56.938 15.94,56.938 C15.824,56.938 16.419,57.532 16.419,58.263 ZM18.185,64.6 L12.886,64.6 C12.397,64.6 12.3,63.610 12.3,63.122 C12.3,62.635 12.397,62.239 12.886,62.239 L18.185,62.239 C18.672,62.239 19.68,61.842 19.68,61.355 L19.68,41.917 C19.68,41.430 18.672,41.34 18.185,41.34 L12.886,41.34 C12.397,41.34 12.3,40.638 12.3,40.150 C12.3,39.662 12.397,39.267 12.886,39.267 L18.185,39.267 C19.646,39.267 20.835,40.456 20.835,41.917 L20.835,61.355 C20.835,62.816 19.646,64.6 18.185,64.6 ZM0.0,76.999 L0.0,74.999 L0.0,64.999 L1.999,64.999 L1.999,74.999 L11.999,74.999 L11.999,76.999 L1.999,76.999 L0.0,76.999 ZM1.999,11.999 L0.0,11.999 L0.0,1.999 L0.0,0.0 L1.999,0.0 L11.999,0.0 L11.999,1.999 L1.999,1.999 L1.999,11.999 Z"/>
</symbol><symbol id="logo-tian">

<g filter="url(#Filter_0)">
<path fill-rule="evenodd" opacity="0.302" fill="rgb(8, 4, 37)" d="M14.496,28.999 C6.486,28.999 0.6,22.507 0.6,14.498 C0.6,6.489 6.486,0.2 14.496,0.2 C22.506,0.2 28.999,6.489 28.999,14.498 C28.999,22.507 22.506,28.999 14.496,28.999 ZM14.499,3.273 C8.298,3.273 3.270,8.300 3.270,14.501 C3.270,20.702 8.298,25.729 14.499,25.729 C20.701,25.729 25.729,20.702 25.729,14.501 C25.729,8.300 20.701,3.273 14.499,3.273 ZM20.582,19.939 L8.304,19.939 C8.304,19.939 7.982,19.779 7.553,19.189 C7.124,18.599 6.749,16.884 6.749,16.884 L12.861,6.537 C12.861,6.537 13.397,5.948 14.446,6.1 C15.495,6.55 16.239,6.537 16.239,6.537 L22.297,16.991 C22.297,16.991 22.351,16.991 22.83,17.902 C21.815,18.814 20.582,19.939 20.582,19.939 ZM14.630,10.665 L10.962,16.750 L18.298,16.750 L14.630,10.665 Z"/>
</g>
</symbol><symbol id="mouse">
<path fill-rule="evenodd" stroke="rgb(255, 255, 255)" stroke-width="2px" stroke-linecap="butt" stroke-linejoin="miter" fill="none" d="M7.999,0.999 L10.999,0.999 C14.865,0.999 17.999,4.133 17.999,7.999 L17.999,18.999 C17.999,22.865 14.865,25.999 10.999,25.999 L7.999,25.999 C4.133,25.999 0.999,22.865 0.999,18.999 L0.999,7.999 C0.999,4.133 4.133,0.999 7.999,0.999 Z"/>
<path fill-rule="evenodd" stroke="rgb(255, 255, 255)" stroke-width="2px" stroke-linecap="butt" stroke-linejoin="miter" fill="none" d="M9.499,5.999 C10.880,5.999 11.999,7.118 11.999,8.499 L11.999,11.499 C11.999,12.880 10.880,13.999 9.499,13.999 C8.119,13.999 6.999,12.880 6.999,11.499 L6.999,8.499 C6.999,7.118 8.119,5.999 9.499,5.999 Z"/>
<path fill-rule="evenodd" d="M11.862,50.526 L9.323,53.816 C9.276,53.877 9.221,53.920 9.163,53.949 C9.4,54.42 8.807,54.2 8.669,53.824 L6.130,50.534 C6.33,50.408 5.999,50.247 6.6,50.87 C6.5,50.74 5.999,50.63 5.999,50.50 C5.999,49.788 6.179,49.575 6.401,49.575 L11.221,49.575 C11.285,49.575 11.344,49.597 11.397,49.628 C11.560,49.530 11.753,49.558 11.880,49.725 C12.46,49.940 12.38,50.299 11.862,50.526 Z"/>
</symbol><symbol id="nav-arrow">
<path fill-rule="evenodd" fill="rgb(255, 255, 255)" d="M8.994,0.594 L5.122,4.384 L5.133,4.395 L4.499,4.993 L3.866,4.395 L3.877,4.384 L0.5,0.594 L0.638,0.4 L4.499,3.775 L8.360,0.4 L8.994,0.594 Z"/>
</symbol></svg>